<svg width="24" height="24" viewBox="0 0 24 24" fill="none" xmlns="http://www.w3.org/2000/svg">
<path fill-rule="evenodd" clip-rule="evenodd" d="M12.0001 2.06543C12.9921 2.06543 13.8991 2.50843 14.6781 3.22843C16.1381 4.57743 17.4501 6.92543 18.5211 9.27143C19.6101 11.6564 20.5151 14.1854 21.1211 16.0204C21.7931 18.0534 20.9141 20.2184 19.1171 21.2964C18.186 21.8575 17.0873 22.0734 16.0131 21.9063C14.939 21.7392 13.9578 21.1998 13.2411 20.3824C12.8263 19.9077 12.4127 19.432 12.0001 18.9554C11.5761 19.4454 11.1521 19.9324 10.7581 20.3824C10.0415 21.1995 9.06042 21.7388 7.98649 21.9059C6.91256 22.0729 5.81407 21.8572 4.88308 21.2964C3.08608 20.2184 2.20708 18.0534 2.87908 16.0204C3.48508 14.1854 4.39008 11.6564 5.47908 9.27143C6.55008 6.92543 7.86008 4.57743 9.32008 3.22843C10.1001 2.50843 11.0071 2.06543 11.9991 2.06543H12.0001ZM13.3161 17.4194C13.9461 16.6744 14.4861 16.0184 14.8001 15.5994C15.7401 14.3464 15.9811 12.7494 15.5141 11.4194C15.0281 10.0354 13.7871 8.99943 12.0001 8.99943C10.2131 8.99943 8.97208 10.0354 8.48608 11.4194C8.01908 12.7494 8.25908 14.3464 9.20008 15.5994C9.51308 16.0184 10.0531 16.6744 10.6841 17.4194C10.2041 17.9754 9.71208 18.5394 9.25408 19.0654C8.84614 19.53 8.28781 19.8362 7.67682 19.9305C7.06583 20.0249 6.44113 19.9013 5.91208 19.5814C4.87808 18.9614 4.41408 17.7494 4.77808 16.6474C5.37308 14.8474 6.25208 12.3934 7.29808 10.1024C8.36108 7.77243 9.53608 5.75243 10.6781 4.69743C11.1941 4.22143 11.6391 4.06543 12.0001 4.06543C12.3601 4.06543 12.8051 4.22143 13.3221 4.69743C14.4641 5.75243 15.6381 7.77343 16.7021 10.1024C17.7481 12.3934 18.6271 14.8474 19.2221 16.6474C19.5861 17.7494 19.1221 18.9604 18.0881 19.5814C17.5591 19.901 16.9346 20.0245 16.3239 19.9301C15.7131 19.8358 15.155 19.5297 14.7471 19.0654C14.2871 18.5404 13.7961 17.9754 13.3161 17.4194ZM12.0001 15.8774C11.5881 15.3949 11.188 14.9024 10.8001 14.4004C10.2401 13.6544 10.1371 12.7514 10.3731 12.0824C10.5901 11.4644 11.0991 11.0004 12.0001 11.0004C12.9001 11.0004 13.4101 11.4644 13.6271 12.0824C13.8621 12.7524 13.7591 13.6544 13.2001 14.4004C12.8125 14.9027 12.4123 15.3952 12.0001 15.8774Z" fill="#84CC16"/>
</svg>
