<svg width="25" height="24" viewBox="0 0 25 24" fill="none" xmlns="http://www.w3.org/2000/svg">
<path fill-rule="evenodd" clip-rule="evenodd" d="M12.6674 21.6004C15.2135 21.6004 17.6553 20.589 19.4556 18.7886C21.256 16.9883 22.2674 14.5465 22.2674 12.0004C22.2674 9.45431 21.256 7.01252 19.4556 5.21217C17.6553 3.41182 15.2135 2.40039 12.6674 2.40039C10.1213 2.40039 7.67951 3.41182 5.87916 5.21217C4.07881 7.01252 3.06738 9.45431 3.06738 12.0004C3.06738 14.5465 4.07881 16.9883 5.87916 18.7886C7.67951 20.589 10.1213 21.6004 12.6674 21.6004ZM17.1158 10.4488C17.3344 10.2225 17.4553 9.91935 17.4526 9.60471C17.4499 9.29007 17.3237 8.9891 17.1012 8.76661C16.8787 8.54412 16.5777 8.41792 16.2631 8.41518C15.9484 8.41245 15.6453 8.5334 15.419 8.75199L11.4674 12.7036L9.91578 11.152C9.68946 10.9334 9.38634 10.8124 9.0717 10.8152C8.75707 10.8179 8.45609 10.9441 8.2336 11.1666C8.01111 11.3891 7.88491 11.6901 7.88217 12.0047C7.87944 12.3193 8.00039 12.6225 8.21898 12.8488L10.619 15.2488C10.844 15.4738 11.1492 15.6001 11.4674 15.6001C11.7856 15.6001 12.0907 15.4738 12.3158 15.2488L17.1158 10.4488Z" fill="#22C55E"/>
</svg>
