<svg width="25" height="24" viewBox="0 0 25 24" fill="none" xmlns="http://www.w3.org/2000/svg">
<path fill-rule="evenodd" clip-rule="evenodd" d="M12.3344 21.6004C14.8805 21.6004 17.3223 20.589 19.1226 18.7886C20.923 16.9883 21.9344 14.5465 21.9344 12.0004C21.9344 9.45431 20.923 7.01252 19.1226 5.21217C17.3223 3.41182 14.8805 2.40039 12.3344 2.40039C9.7883 2.40039 7.3465 3.41182 5.54615 5.21217C3.7458 7.01252 2.73438 9.45431 2.73438 12.0004C2.73438 14.5465 3.7458 16.9883 5.54615 18.7886C7.3465 20.589 9.7883 21.6004 12.3344 21.6004ZM16.7828 10.4488C17.0014 10.2225 17.1223 9.91935 17.1196 9.60471C17.1168 9.29007 16.9906 8.9891 16.7682 8.76661C16.5457 8.54412 16.2447 8.41792 15.9301 8.41518C15.6154 8.41245 15.3123 8.5334 15.086 8.75199L11.1344 12.7036L9.58278 11.152C9.35645 10.9334 9.05333 10.8124 8.73869 10.8152C8.42406 10.8179 8.12308 10.9441 7.90059 11.1666C7.6781 11.3891 7.5519 11.6901 7.54917 12.0047C7.54643 12.3193 7.66739 12.6225 7.88598 12.8488L10.286 15.2488C10.511 15.4738 10.8162 15.6001 11.1344 15.6001C11.4526 15.6001 11.7577 15.4738 11.9828 15.2488L16.7828 10.4488Z" fill="#3B82F6"/>
</svg>
