<svg width="25" height="24" viewBox="0 0 25 24" fill="none" xmlns="http://www.w3.org/2000/svg">
<path fill-rule="evenodd" clip-rule="evenodd" d="M5.81814 5.1515C6.04317 4.92654 6.34834 4.80016 6.66654 4.80016C6.98474 4.80016 7.28991 4.92654 7.51494 5.1515L12.6665 10.3031L17.8181 5.1515C17.9288 5.03689 18.0613 4.94547 18.2077 4.88258C18.3541 4.81969 18.5115 4.78659 18.6709 4.7852C18.8302 4.78382 18.9882 4.81418 19.1357 4.87452C19.2832 4.93485 19.4171 5.02396 19.5298 5.13663C19.6425 5.2493 19.7316 5.38328 19.7919 5.53076C19.8523 5.67823 19.8826 5.83625 19.8812 5.99558C19.8799 6.15492 19.8468 6.31238 19.7839 6.45879C19.721 6.60519 19.6296 6.73761 19.5149 6.8483L14.3633 11.9999L19.5149 17.1515C19.7335 17.3778 19.8545 17.6809 19.8517 17.9956C19.849 18.3102 19.7228 18.6112 19.5003 18.8337C19.2778 19.0562 18.9769 19.1824 18.6622 19.1851C18.3476 19.1878 18.0445 19.0669 17.8181 18.8483L12.6665 13.6967L7.51494 18.8483C7.28862 19.0669 6.9855 19.1878 6.67086 19.1851C6.35622 19.1824 6.05525 19.0562 5.83276 18.8337C5.61027 18.6112 5.48407 18.3102 5.48133 17.9956C5.4786 17.6809 5.59955 17.3778 5.81814 17.1515L10.9697 11.9999L5.81814 6.8483C5.59318 6.62327 5.4668 6.3181 5.4668 5.9999C5.4668 5.68171 5.59318 5.37654 5.81814 5.1515Z" fill="#737373"/>
</svg>
